<?xml version="1.0" encoding="utf-8"?>
<!-- Generator: Adobe Illustrator 24.0.1, SVG Export Plug-In . SVG Version: 6.00 Build 0)  -->
<svg version="1.1" id="Layer_1" xmlns="http://www.w3.org/2000/svg" xmlns:xlink="http://www.w3.org/1999/xlink" x="0px" y="0px"
	 viewBox="0 0 91 91" style="enable-background:new 0 0 91 91;" xml:space="preserve">
<style type="text/css">
	.st0{fill:#FFFFFF;}
</style>
<g id="Layer_5">
	<path class="st0" d="M82.6,63.5C60.6,46.4,65,39.8,65,39.8l-3.3-4.4L53,22.8c0,0,5.5-20.9,1.1-16.5c-9.9,20.9-15.4,16.5-15.4,16.5
		S29.9,0.3,26.6,1.9s-5.5,26.4-5.5,26.4L7.9,36c-4.4,37.4,3.3,53.8,3.3,53.8l12.6-6L34.3,81l15.9-13.7l2.2,2.7c0,0,7.1,0.5,9.9,2.2
		C65,73.9,88.7,67.3,82.6,63.5z M48,43.7c0,0,7.7-3.3,8.8,3.3C56.8,47,51.3,49.7,48,43.7z"/>
</g>
</svg>
